<svg xmlns="http://www.w3.org/2000/svg" width="98.192" height="45.846" viewBox="0 0 73.63 34.38"><path fill="#fff" d="M18.82 3a2.08 2.08 0 0 0-2 2.17c0 1.14 1 2.77 2.91 4.53a22.16 22.16 0 0 0 2.42 1.95c1.82-1.28 5.32-4.23 5.32-6.48a2.08 2.08 0 0 0-2-2.17 2 2 0 0 0-2 2.07 1.37 1.37 0 1 1-2.74 0 2 2 0 0 0-2-2.07m-.93 8.73c-2.5-2.3-3.79-4.52-3.79-6.56A4.82 4.82 0 0 1 18.82.28a4.68 4.68 0 0 1 3.35 1.42A4.68 4.68 0 0 1 25.52.28a4.82 4.82 0 0 1 4.72 4.91c0 2-1.29 4.26-3.79 6.56a30.06 30.06 0 0 1-3.54 2.73 1.52 1.52 0 0 1-.74.22 1.49 1.49 0 0 1-.74-.22 28.49 28.49 0 0 1-3.54-2.73"/><path fill="#fff" fill-rule="evenodd" d="M0 7.41c0 5.39 3.16 7.37 7.17 7.37 1.3 0 3.81-.43 5-1.59.35-.35.35-.7.35-1.38V8.07c0-1-.41-1.57-1.44-1.57H7.54A1.17 1.17 0 0 0 6.3 7.76 1.17 1.17 0 0 0 7.54 9h2.1v2.77a7.65 7.65 0 0 1-2.58.45c-2.12 0-4-1.32-4-4.83S5 2.66 6.92 2.66a4.78 4.78 0 0 1 2.5.6 1.87 1.87 0 0 0 1 .29 1.16 1.16 0 0 0 1.19-1.26 1.54 1.54 0 0 0-.49-1.09A6.25 6.25 0 0 0 7 0C3.7 0 0 1.92 0 7.41zM32.63 12.26a2 2 0 0 0 2.17 2.15h6a1.21 1.21 0 0 0 1.2-1.28 1.17 1.17 0 0 0-1.24-1.24H36c-.27 0-.39-.12-.39-.39V1.63A1.43 1.43 0 0 0 34.12.17a1.4 1.4 0 0 0-1.49 1.46zM43.8 13.19a1.34 1.34 0 0 0 1.45 1.43 1.37 1.37 0 0 0 1.49-1.43V8.36h4.7a1.21 1.21 0 0 0 1.24-1.28 1.17 1.17 0 0 0-1.24-1.24h-4.7V3.28c0-.27.12-.39.39-.39h4.7a1.17 1.17 0 0 0 1.24-1.24A1.21 1.21 0 0 0 51.83.37H46a2 2 0 0 0-2.2 2.15z"/><path fill="#ffc629" d="M56.73 13.52a1 1 0 0 0 1.07 1.09 1 1 0 0 0 1.09-1.09V1.3A1 1 0 0 0 57.8.21a1 1 0 0 0-1.07 1.09zm5.76 0a1 1 0 0 0 1 1.09 1 1 0 0 0 1.09-1.09V6.05c0-.58 0-1.08-.06-1.76.25.42.68 1.08.91 1.41l5.85 8.3a1.43 1.43 0 0 0 1.25.7 1.08 1.08 0 0 0 1.1-1.15V1.28a1 1 0 0 0-1-1.07 1 1 0 0 0-1.1 1.07V10.57c-.22-.42-.66-1.06-.88-1.39L64.9.93a1.42 1.42 0 0 0-1.3-.76 1.08 1.08 0 0 0-1.11 1.17z"/><path fill="#fff" fill-rule="evenodd" d="M.56 33a6.75 6.75 0 0 0 4.54 1.38c3.16 0 5.62-1.51 5.62-4.4 0-4.71-5.83-4.15-7.11-5.43a1.19 1.19 0 0 1-.33-.85c0-.95.68-1.44 2-1.44a4.61 4.61 0 0 1 2.12.47 2.88 2.88 0 0 0 1.22.4 1.15 1.15 0 0 0 1.2-1.24c0-1.88-3-2.29-4.48-2.29-3.07 0-5.09 1.65-5.09 4.17 0 4.95 5.47 3.92 7.12 5.57a1.14 1.14 0 0 1 .31.79c0 1.11-1 1.56-2.44 1.56a5.07 5.07 0 0 1-2.76-.84 2.46 2.46 0 0 0-1.18-.44A1.29 1.29 0 0 0 0 31.74 1.68 1.68 0 0 0 .56 33zM13.28 32.79a1.34 1.34 0 0 0 1.44 1.42 1.37 1.37 0 0 0 1.49-1.42v-3.12H19c3.53 0 5-2.33 5-4.83S22.51 20 19 20h-4.28a1.33 1.33 0 0 0-1.44 1.42zm2.93-5.64v-4.66h2.62c1.71 0 2.13 1.23 2.13 2.33s-.42 2.33-2.13 2.33z"/><path fill="#fff" d="M24.68 32.67c0 1.13.62 1.54 1.4 1.54a1.4 1.4 0 0 0 1.43-1.38 18.42 18.42 0 0 1 .41-2.15h5.43a18.42 18.42 0 0 1 .41 2.15 1.4 1.4 0 0 0 1.42 1.38 1.37 1.37 0 0 0 1.45-1.57c0-2.7-2.37-9.94-4.91-12.48a1.52 1.52 0 0 0-2.13 0c-2.54 2.54-4.91 9.8-4.91 12.51zm3.84-4.42A20.46 20.46 0 0 1 30.17 24a9.94 9.94 0 0 0 .45-1c.13.29.29.64.46 1a20.46 20.46 0 0 1 1.65 4.23zm10.65 4.5a1.36 1.36 0 0 0 1.45 1.42 1.38 1.38 0 0 0 1.49-1.42v-11.6a1.37 1.37 0 0 0-1.49-1.42 1.35 1.35 0 0 0-1.45 1.42zm6.12 0a1.34 1.34 0 0 0 1.4 1.42 1.39 1.39 0 0 0 1.49-1.42v-5.49c0-.79 0-1.36-.07-2.11a13.64 13.64 0 0 0 1 1.61l4.72 6.63a2 2 0 0 0 1.63.78 1.43 1.43 0 0 0 1.54-1.5V21.15a1.35 1.35 0 0 0-1.41-1.42 1.38 1.38 0 0 0-1.48 1.42v5.51c0 .76 0 1.36.06 2.08-.25-.47-.74-1.21-1-1.54l-4.62-6.54a1.84 1.84 0 0 0-1.7-.93 1.46 1.46 0 0 0-1.52 1.55z"/></svg>